/* XPM */
static char * close_prelight = {
"16 14 3 1", 
"@	c #b92121", 
"+	c #d92626", 
"=	c #000000 s active_color_2", 
"================", 
"================", 
"====@@====@@====", 
"===@++@==@++@===", 
"===@+++@@+++@===", 
"====@++++++@====", 
"=====@++++@=====", 
"=====@++++@=====", 
"====@++++++@====", 
"===@+++@@+++@===", 
"===@++@==@++@===", 
"====@@====@@====", 
"================", 
"================", 
};