/* XPM */
static char * maximize_toggled_prelight = {
"16 14 4 1", 
"@	c #b1b1b1 s active_shadow_1", 
"+	c #000000 s active_color_1", 
"=	c #000000 s active_color_2", 
"#	c #b1b1b1 s active_shadow_1", 
"================", 
"================", 
"================", 
"==@@@@@@@@@@@@==", 
"==@++++++++++@==", 
"==@++++++++++@==", 
"==@+########+@==", 
"==@+#======#+@==", 
"==@+#======#+@==", 
"==@+#======#+@==", 
"==@+########+@==", 
"==@++++++++++@==", 
"==@@@@@@@@@@@@==", 
"================", 
};