/* XPM */
static char * top_left_active = {
"4 20 5 1", 
"=	c #000000 s active_color_2", 
"+	c #000000 s active_shadow_1", 
"%	c #000000 s active_color_1", 
"#	c #000000 s active_mid_2", 
".	c None", 
"....", 
"..++", 
".+%%", 
".+%#", 
"+%#=", 
"+%#=", 
"+%#=", 
"+%#=", 
"+%#=", 
"+%#=", 
"+%#=", 
"+%#=", 
"+%#=", 
"+%#=", 
"+%#=", 
"+%#=", 
"+%#=", 
"+%#=", 
"+%#=", 
"+%#=", 
};