/* XPM */
static char * bottom_active = {
"7 4 3 1", 
"#	c #000000 s active_mid_2", 
"%	c #000000 s active_color_1", 
"+	c #000000 s active_shadow_1", 
"#######", 
"%%%%%%%", 
"%%%%%%%", 
"+++++++", 
};