/* XPM */
static char * maximize_pressed = {
"16 14 4 1", 
"@	c #000000 s active_color_2", 
"+	c #000000 s active_color_1", 
"=	c #000000 s active_color_2", 
"#	c #000000 s active_color_1", 
"================", 
"=@@@@@@@@@@@@@@=", 
"=@++++++++++++@=", 
"=@++++++++++++@=", 
"=@+##########+@=", 
"=@+#========#+@=", 
"=@+#========#+@=", 
"=@+#========#+@=", 
"=@+#========#+@=", 
"=@+#========#+@=", 
"=@+##########+@=", 
"=@++++++++++++@=", 
"=@@@@@@@@@@@@@@=", 
"================", 
};