/* XPM */
static char * menu_prelight = {
"16 22 2 1", 
"=	c #000000 s active_color_2", 
".	c None", 
"................", 
"................", 
"................", 
"================", 
"================", 
"================", 
"================", 
"================", 
"================", 
"================", 
"================", 
"================", 
"================", 
"================", 
"================", 
"================", 
"================", 
"================", 
"================", 
"================", 
"================", 
"================", 
};