/* XPM */
static char * menu_pressed = {
"16 22 2 1", 
"=	c #000000 s active_color_1", 
".	c None", 
"................", 
"................", 
"................", 
"================", 
"================", 
"================", 
"================", 
"================", 
"================", 
"================", 
"================", 
"================", 
"================", 
"================", 
"================", 
"================", 
"================", 
"================", 
"================", 
"================", 
"================", 
"================", 
};