/* XPM */
static char * menu_active = {
"16 22 2 1", 
"=	c #000000 s active_color_2", 
".	c None", 
"................", 
"................", 
"................", 
"================", 
"================", 
"================", 
"================", 
"================", 
"================", 
"================", 
"================", 
"================", 
"================", 
"================", 
"================", 
"================", 
"================", 
"================", 
"================", 
"================", 
"================", 
"================", 
};