/* XPM */
static char * shade_prelight = {
"16 14 3 1", 
"@	c #b1b1b1 s active_shadow_1", 
"+	c #000000 s active_color_1", 
"=	c #000000 s active_color_2", 
"================", 
"================", 
"================", 
"=======@@=======", 
"======@++@======", 
"=====@++++@=====", 
"====@++++++@====", 
"===@++++++++@===", 
"===@++@++@++@===", 
"====@@@++@@@====", 
"======@++@======", 
"======@++@======", 
"=======@@=======", 
"================", 
};