/* XPM */
static char * stick_toggled_active = {
"16 14 3 1", 
"@	c #000000 s active_color_2", 
"+	c #505050 s active_text_color", 
"=	c #000000 s active_color_2", 
"================", 
"================", 
"================", 
"======@@@@======", 
"=====@++++@=====", 
"====@++++++@====", 
"===@++@@@@++@===", 
"===@++@++@++@===", 
"===@++@++@++@===", 
"===@++@@@@++@===", 
"====@++++++@====", 
"=====@++++@=====", 
"======@@@@======", 
"================", 
};