/* XPM */
static char * close_active = {
"15 18 5 1", 
"@	c #505050 s active_text_color", 
"+	c #505050 s active_text_color", 
"-	c #000000 s active_mid_2", 
"$	c #b1b1b1 s active_shadow_2", 
".	c None", 
"...............", 
"---------------", 
"---------------", 
"---------------", 
"-----@@----@@--", 
"----@++@--@++@-", 
"----@+++@@+++@-", 
"-----@++++++@--", 
"------@++++@---", 
"------@++++@---", 
"-----@++++++@--", 
"----@+++@@+++@-", 
"----@++@--@++@-", 
"-----@@----@@--", 
"---------------", 
"---------------", 
"---------------", 
"$$$$$$$$$$$$$$$", 
};