/* XPM */
static char * stick_inactive = {
"16 14 3 1", 
"@	c #000000 s inactive_mid_2", 
"+	c #505050 s inactive_text_color", 
"=	c #000000 s active_color_2", 
"================", 
"================", 
"================", 
"======@@@@======", 
"=====@++++@=====", 
"====@++++++@====", 
"===@++@@@@++@===", 
"===@++@==@++@===", 
"===@++@==@++@===", 
"===@++@@@@++@===", 
"====@++++++@====", 
"=====@++++@=====", 
"======@@@@======", 
"================", 
};