/* XPM */
static char * maximize_toggled_inactive = {
"18 18 6 1", 
"@	c #000000 s inactive_mid_2", 
"#	c #505050 s inactive_text_color", 
"$	c #b1b1b1 s inactive_shadow_2", 
"+	c #505050 s inactive_text_color", 
"-	c #000000 s inactive_mid_2", 
".	c None", 
"..................", 
"------------------", 
"------------------", 
"------------------", 
"------------------", 
"---@@@@@@@@@@@@---", 
"---@++++++++++@---", 
"---@++++++++++@---", 
"---@+########+@---", 
"---@+#------#+@---", 
"---@+#------#+@---", 
"---@+#------#+@---", 
"---@+########+@---", 
"---@++++++++++@---", 
"---@@@@@@@@@@@@---", 
"------------------", 
"------------------", 
"$$$$$$$$$$$$$$$$$$", 
};