/* XPM */
static char * shade_prelight = {
"18 18 5 1", 
"@	c #b1b1b1 s active_shadow_1", 
"+	c #000000 s active_color_1", 
"-	c #000000 s active_mid_2", 
"$	c #b1b1b1 s active_shadow_2", 
".	c None", 
"..................", 
"------------------", 
"------------------", 
"------------------", 
"------------------", 
"--------@@--------", 
"-------@++@-------", 
"------@++++@------", 
"-----@++++++@-----", 
"----@++++++++@----", 
"----@++@++@++@----", 
"-----@@@++@@@-----", 
"-------@++@-------", 
"-------@++@-------", 
"--------@@--------", 
"------------------", 
"------------------", 
"$$$$$$$$$$$$$$$$$$", 
};