/* XPM */
static char * title_5_active = {
"23 20 6 1", 
"#	c #000000 s active_mid_2", 
"%	c #000000 s active_color_1", 
"$	c #b1b1b1 s active_shadow_2", 
"+	c #000000 s active_shadow_1", 
"-	c #000000 s active_mid_2", 
"=	c #000000 s active_color_2", 
"+++++++++++++++++++++++", 
"%%%%%%%%%%%%%%%%%%%%%%%", 
"#######################", 
"-----------------------", 
"--------------------$--", 
"--------------------$--", 
"--------------------$--", 
"--------------------$--", 
"--------------------$--", 
"--------------------$--", 
"--------------------$--", 
"--------------------$--", 
"--------------------$--", 
"--------------------$--", 
"--------------------$--", 
"--------------------$--", 
"-----------------------", 
"-----------------------", 
"$$$$$$$$$$$$$$$$$$$$$$$", 
"=======================", 
};